<svg version="1.1" id="Layer_1" xmlns="http://www.w3.org/2000/svg" xmlns:xlink="http://www.w3.org/1999/xlink" x="0px" y="0px"
	 width="100%" viewBox="0 0 1024 1024" enable-background="new 0 0 1024 1024" xml:space="preserve">
<path fill="#588868" opacity="1.000000" stroke="none" 
	d="
M919.353760,584.098877 
	C912.521606,621.337097 902.178589,657.117737 885.851196,690.828369 
	C857.317322,749.741333 818.289062,800.318542 765.631104,839.986389 
	C732.009827,865.313599 696.202515,886.561157 656.567078,900.916931 
	C626.480164,911.814331 595.595886,919.508545 563.744446,923.560852 
	C539.515198,926.643433 515.179626,927.768005 491.003723,926.008484 
	C403.251343,919.622070 324.051208,890.743347 254.895798,835.175171 
	C209.969452,799.075623 174.822815,755.439148 148.039490,704.679382 
	C128.399612,667.457886 114.255035,628.343994 107.016617,586.849915 
	C101.480484,555.114258 99.386559,523.084351 100.935059,490.919067 
	C104.215675,422.774689 123.922226,359.411469 158.633743,300.882690 
	C187.349319,252.464035 223.931320,210.679276 270.288269,178.433472 
	C309.837494,150.923126 352.071014,128.341644 399.299225,116.461952 
	C423.820343,110.293953 448.601990,105.862671 473.805634,103.503159 
	C489.588104,102.025642 505.362061,101.298805 521.167603,101.748100 
	C613.071106,104.360588 696.155212,131.755035 769.121399,188.815994 
	C825.043823,232.548416 866.257324,287.149506 893.618896,352.373474 
	C907.309204,385.008148 916.723572,418.862701 921.543457,454.024628 
	C925.129028,480.182343 926.112915,506.418732 925.065491,532.705688 
	C924.385254,549.778015 922.510437,566.816040 919.353760,584.098877 
M334.310913,183.900131 
	C276.882568,214.527039 230.517639,257.234497 196.243469,312.512695 
	C154.488510,379.856018 135.018799,453.207153 139.153702,532.632751 
	C140.080963,550.444458 141.996414,568.108459 145.675095,585.495728 
	C163.684311,670.616272 204.964203,742.245667 271.301666,798.845093 
	C335.134430,853.307495 409.412689,882.469849 493.006409,887.458801 
	C520.421021,889.095032 547.840271,887.413452 575.050110,882.796326 
	C635.303650,872.572144 689.726501,848.888062 738.506653,812.291809 
	C774.042236,785.632019 803.467834,753.192749 827.690857,715.963196 
	C865.688904,657.562073 884.667969,593.186523 887.523193,523.938354 
	C888.934692,489.707153 885.087036,455.853729 876.659241,422.597534 
	C852.929810,328.961273 801.436035,254.706818 720.959717,201.048569 
	C658.330200,159.289780 588.539001,140.723801 513.844849,139.557404 
	C493.752106,139.243622 473.672974,141.143661 453.716095,144.168167 
	C411.846436,150.513611 372.158203,163.232635 334.310913,183.900131 
z"/>
<path fill="#588868" opacity="1.000000" stroke="none" 
	d="
M324.964447,546.776733 
	C309.649109,490.559448 339.406067,429.413544 392.907898,407.262512 
	C432.646576,390.809753 471.493500,393.232574 509.009125,414.319305 
	C512.548218,416.308563 515.028870,416.286346 518.488342,414.289612 
	C540.678589,401.481842 564.741638,395.428619 590.262512,396.856720 
	C649.954041,400.196930 695.805481,442.905334 705.075500,500.294403 
	C712.076294,543.635986 692.352051,582.413513 656.441772,601.960388 
	C654.043701,603.265686 653.207031,604.889771 653.228943,607.523926 
	C653.449219,634.005737 653.917236,660.481628 655.115356,686.938354 
	C655.544678,696.418396 655.281433,705.896484 655.953979,715.394958 
	C657.210938,733.148438 657.385986,750.975952 658.446045,768.746765 
	C659.134460,780.287415 649.591125,789.297852 638.157349,789.297485 
	C554.826965,789.295227 471.496582,789.337341 388.166260,789.289124 
	C376.420044,789.282349 367.476196,780.395203 367.787262,768.554199 
	C368.140961,755.091064 369.258301,741.647827 370.051971,728.196411 
	C370.571381,719.393250 371.350861,710.597412 371.588623,701.786865 
	C372.419739,670.983704 372.996185,640.173645 373.869812,609.371826 
	C373.980804,605.459778 372.696381,603.389038 369.308960,601.554016 
	C347.117859,589.533020 332.691711,571.096191 324.964447,546.776733 
M413.247955,626.500000 
	C413.270996,637.328430 413.302032,648.156860 413.313324,658.985291 
	C413.318024,663.504883 414.780457,665.826965 420.069336,665.812866 
	C482.708557,665.645752 545.348511,665.651794 607.987793,665.793152 
	C612.723022,665.803833 613.889954,664.224304 613.849670,659.751526 
	C613.650208,637.596130 613.647949,615.437561 613.771973,593.281250 
	C613.827515,583.348755 618.437439,576.134888 627.739380,572.181213 
	C629.577515,571.399963 631.482483,570.762939 633.278259,569.896912 
	C655.371643,559.243225 667.656311,542.138916 667.674255,517.127930 
	C667.684448,502.913422 662.835876,490.030090 656.117493,477.796143 
	C634.304993,438.076233 591.478271,428.029755 554.205566,439.590393 
	C548.902771,441.235077 547.838135,445.082672 551.233276,449.558136 
	C554.252136,453.537720 557.568237,457.302795 560.426880,461.390747 
	C566.987122,470.772095 565.174500,481.853943 556.244141,488.230804 
	C546.961853,494.859100 536.656189,493.216583 529.427063,483.887268 
	C521.840454,474.096619 513.203735,465.335968 503.619781,457.513580 
	C483.512238,441.101868 460.591309,432.708679 434.593964,435.547241 
	C395.522461,439.813202 365.971832,468.871552 360.025299,507.755402 
	C355.324982,538.490173 369.127747,561.746521 398.086121,571.884583 
	C407.921783,575.328003 413.173859,582.589172 413.228516,593.014099 
	C413.285309,603.842468 413.245209,614.671326 413.247955,626.500000 
M540.500061,703.323242 
	C499.710785,703.564453 458.921631,703.839844 418.132019,703.991333 
	C414.257568,704.005676 411.636627,704.764099 411.389709,709.217041 
	C410.736328,721.000671 409.873383,732.773865 409.337463,744.562378 
	C409.019592,751.554565 410.194458,752.636169 417.344574,752.629517 
	C482.113464,752.568787 546.882324,752.443237 611.651245,752.439331 
	C616.197205,752.439026 617.998840,750.769104 617.713135,746.230347 
	C616.940186,733.951538 616.090759,721.667114 615.812622,709.372742 
	C615.703186,704.534363 614.170532,703.140564 609.435791,703.186584 
	C586.792297,703.406738 564.145630,703.308594 540.500061,703.323242 
z"/>
<path fill="#588868" opacity="1.000000" stroke="none" 
	d="
M517.572144,317.562195 
	C500.521027,311.871490 484.403320,305.089661 470.805176,293.652710 
	C437.871033,265.952972 438.705933,223.417206 472.597168,196.148727 
	C487.155121,184.435593 504.094574,177.606522 521.965027,173.007828 
	C530.603333,170.784897 539.490479,176.722610 541.922302,185.540634 
	C544.647949,195.424164 539.530945,205.609680 529.891113,208.967514 
	C522.185486,211.651611 514.421509,214.129898 507.274933,218.183868 
	C500.536865,222.006088 494.564667,226.690735 489.876099,232.928589 
	C482.807220,242.333450 483.314423,252.583954 491.599823,260.872467 
	C501.273254,270.549561 513.570740,275.721100 526.138123,280.302917 
	C537.539307,284.459595 549.445129,287.255371 560.343811,292.760620 
	C573.343567,299.327209 584.215881,308.130188 589.165955,322.440521 
	C595.372192,340.382355 588.300781,362.071198 571.976013,375.708405 
	C560.919250,384.944855 547.990051,390.680389 534.368652,394.808380 
	C525.857056,397.387787 517.163696,392.278229 513.638245,383.398651 
	C510.209930,374.763672 513.543640,364.770813 521.311890,360.323975 
	C526.957397,357.092194 533.400940,355.576141 538.910767,352.031067 
	C542.570312,349.676422 546.164368,347.285736 548.814880,343.750244 
	C553.649292,337.301514 552.548706,331.583069 545.702087,327.347412 
	C541.673767,324.855286 537.068787,323.906067 532.663818,322.430847 
	C527.776428,320.794128 522.851807,319.268555 517.572144,317.562195 
z"/>
</svg>
